<?xml version="1.0" encoding="utf-8"?>
<!-- Generator: Adobe Illustrator 16.0.0, SVG Export Plug-In . SVG Version: 6.00 Build 0)  -->
<!DOCTYPE svg PUBLIC "-//W3C//DTD SVG 1.1//EN" "http://www.w3.org/Graphics/SVG/1.1/DTD/svg11.dtd">
<svg version="1.1" id="Layer_1" xmlns="http://www.w3.org/2000/svg" xmlns:xlink="http://www.w3.org/1999/xlink" x="0px" y="0px"
	 width="180px" height="180px" viewBox="0 0 180 180" enable-background="new 0 0 180 180" xml:space="preserve">
<path opacity="0.6" fill="#010101" d="M26.3,42.5H10.2v113.2c0,8.9,7.3,16.2,16.2,16.2h113.2v-16.2H26.3V42.5z M155.7,10.2h-97
	c-8.9,0-16.2,7.3-16.2,16.2v97c0,8.9,7.3,16.2,16.2,16.2h97c8.9,0,16.2-7.3,16.2-16.2v-97C171.8,17.4,164.6,10.2,155.7,10.2z
	 M147.6,82.9h-32.3v32.3H99.1V82.9H66.8V66.8h32.3V34.4h16.2v32.3h32.3V82.9z"/>
</svg>
