<svg id="Layer_1" data-name="Layer 1" xmlns="http://www.w3.org/2000/svg" xmlns:xlink="http://www.w3.org/1999/xlink" viewBox="0 0 731.09 673.84"><defs><style>.cls-1{fill:#424242;}.cls-2{fill:#e8edef;}.cls-3{fill:#c8ced6;}.cls-4{fill:#121212;}.cls-5{fill:#000a12;}.cls-6{fill:url(#linear-gradient);}.cls-7{opacity:0.3;}.cls-8{fill:url(#linear-gradient-2);}.cls-9{fill:url(#linear-gradient-3);}.cls-10{fill:url(#linear-gradient-4);}.cls-11{fill:#fafafa;}.cls-12{fill:url(#New_Gradient_Swatch_1);}.cls-13{fill:#efefef;}.cls-14{fill:url(#New_Gradient_Swatch_1-2);}.cls-15{fill:url(#New_Gradient_Swatch_1-3);}.cls-16{fill:url(#New_Gradient_Swatch_1-4);}.cls-17{fill:#484848;}.cls-18{isolation:isolate;}</style><linearGradient id="linear-gradient" x1="27.04" y1="248.34" x2="407.11" y2="248.34" gradientUnits="userSpaceOnUse"><stop offset="0" stop-color="#5b32bc"/><stop offset="1" stop-color="#44a1cb"/></linearGradient><linearGradient id="linear-gradient-2" x1="193.04" y1="208.78" x2="407.11" y2="208.78" gradientUnits="userSpaceOnUse"><stop offset="0" stop-color="#336fff"/><stop offset="1" stop-color="#44a1cb"/></linearGradient><linearGradient id="linear-gradient-3" x1="27.04" y1="282.75" x2="262.9" y2="282.75" xlink:href="#linear-gradient-2"/><linearGradient id="linear-gradient-4" x1="95.76" y1="346.5" x2="415.43" y2="26.83" gradientUnits="userSpaceOnUse"><stop offset="0" stop-color="#a43493"/><stop offset="1" stop-color="#ec366b"/></linearGradient><linearGradient id="New_Gradient_Swatch_1" x1="96.33" y1="347.15" x2="173.16" y2="270.32" gradientUnits="userSpaceOnUse"><stop offset="0" stop-color="#b40041"/><stop offset="1" stop-color="#720065"/></linearGradient><linearGradient id="New_Gradient_Swatch_1-2" x1="244.16" y1="237.43" x2="320.73" y2="237.43" xlink:href="#New_Gradient_Swatch_1"/><linearGradient id="New_Gradient_Swatch_1-3" x1="397.43" y1="164.11" x2="472.89" y2="164.11" xlink:href="#New_Gradient_Swatch_1"/><linearGradient id="New_Gradient_Swatch_1-4" x1="27.04" y1="251.9" x2="90.95" y2="251.9" xlink:href="#New_Gradient_Swatch_1"/></defs><title>yourstore_new_logo</title><polygon class="cls-1" points="420.53 306.79 414.79 319.72 43.85 499.14 13.56 500.94 27.04 486.83 407.12 306.79 420.53 306.79"/><path class="cls-2" d="M731,462.63c-.07-4-2.56-7.95-7.33-10.3L420.33,307.56,13.56,501.71c0,15.29,9.89,29.47,25.93,37.15L310.77,668.34a66.7,66.7,0,0,0,56.5,0L701.21,508.91c18.47-8.86,29.88-25.11,29.88-42.75l-.07-3.53Z" transform="translate(0 -0.77)"/><path class="cls-3" d="M723.69,473.42,367.21,643.57a66.73,66.73,0,0,1-56.51,0L13.56,501.71c0,15.29,9.89,29.47,25.93,37.15L310.77,668.34a66.7,66.7,0,0,0,56.5,0L701.21,508.91c18.47-8.86,29.88-25.11,29.88-42.75v-3.25C731.09,467,728.6,471.07,723.69,473.42Z" transform="translate(0 -0.77)"/><polygon class="cls-4" points="94.14 461.72 130.93 479.5 375.3 362.74 338.85 345.52 94.14 461.72"/><path class="cls-5" d="M412.72,7.17h0l-7.06-3.39a31.89,31.89,0,0,0-27,0l-350,167.11C10.93,179.33.07,194.89.07,211.77V482.42c0,7.95,5.19,15.35,13.56,19.36l407-194.15V17.89C420.53,13.05,417.21,9.18,412.72,7.17Z" transform="translate(0 -0.77)"/><path class="cls-4" d="M13.56,218c0-16.67,10.79-32.09,28.22-40.39l.34-.14h0L398.47,7.38a17.11,17.11,0,0,1,14.25-.21h0l-7.13-3.39a31.89,31.89,0,0,0-27,0l-350,167.11C10.86,179.33,0,194.89,0,211.77V482.42c0,7.95,5.19,15.35,13.56,19.36V218Z" transform="translate(0 -0.77)"/><polygon class="cls-6" points="27.04 203.11 27.04 475 407.12 293.72 407.12 21.68 27.04 203.11"/><g class="cls-7"><polygon class="cls-8" points="193.04 395.88 380.42 306.44 407.12 245.09 407.12 21.68 342.1 52.74 193.04 395.88"/></g><g class="cls-7"><polygon class="cls-9" points="262.9 90.5 98.91 168.8 27.04 334.25 27.04 475 113.92 433.57 262.9 90.5"/></g><path class="cls-10" d="M472.82,118.05,408.91,20.31,27,203.88V270.7l64,30.78V333c0,18.81,24.63,30.5,44.27,21.09h0c20-9.54,32.3-27.18,32.3-46.27v-43L244.23,228v31.4c0,18.82,24.62,30.51,44.26,21.1,20-9.55,32.3-27.18,32.3-46.27v-43l76.64-36.8v31.33c0,18.81,24.62,30.5,44.27,21.1,20-9.55,31.19-26.63,31.19-45.72l-.07-43Z" transform="translate(0 -0.77)"/><path class="cls-11" d="M244.16,227.88,179,130.7l-76.56,36.8,65.22,97.11v31.47c0,18.81,24.62,30.5,44.27,21.1,20-9.55,32.3-27.19,32.3-46.28l-.07-43Z" transform="translate(0 -0.77)"/><path class="cls-11" d="M332.21,57.11l-76.5,36.73,65.15,97.25v31.47c0,18.81,24.63,30.5,44.27,21.09,20-9.54,32.3-27.18,32.3-46.27V154.29Z" transform="translate(0 -0.77)"/><path class="cls-12" d="M91,301.48V333c0,18.81,24.63,30.5,44.27,21.09h0c20-9.54,32.3-27.18,32.3-46.27V264.68Z" transform="translate(0 -0.77)"/><path class="cls-13" d="M167.66,264.68v31.47c0,18.81,24.62,30.5,44.27,21.1h0c20-9.55,32.3-27.19,32.3-46.28V227.88Z" transform="translate(0 -0.77)"/><path class="cls-14" d="M244.16,227.88v31.47c0,18.82,24.62,30.51,44.26,21.1h0c20-9.55,32.31-27.18,32.31-46.27V191.09Z" transform="translate(0 -0.77)"/><path class="cls-15" d="M397.43,154.29v31.47c0,18.81,24.62,30.5,44.27,21.1h0c20-9.55,31.19-26.63,31.19-45.72V118.05Z" transform="translate(0 -0.77)"/><path class="cls-13" d="M320.86,191.09v31.47c0,18.81,24.63,30.5,44.27,21.09h0c20-9.54,32.3-27.18,32.3-46.27V154.29Z" transform="translate(0 -0.77)"/><polygon class="cls-16" points="90.95 300.7 27.04 269.92 27.04 203.11 90.95 300.7"/><path class="cls-17" d="M302.79,446.91c1.73.83,1.73,2.21.07,3L287,457.76a7.76,7.76,0,0,1-6.09,0l-16.46-8.09c-1.73-.83-1.66-2.21,0-3l15.91-7.89a7.76,7.76,0,0,1,6.09,0Z" transform="translate(0 -0.77)"/><g class="cls-18"><path class="cls-17" d="M540.17,387.91c1.11.55,1.18,1.45,0,2.07l-47.45,23.38a5.6,5.6,0,0,1-4.22,0l-18.33-9.06c-1.17-.55-1.17-1.52,0-2.08l47.38-23.37a5.51,5.51,0,0,1,4.22,0Z" transform="translate(0 -0.77)"/><path class="cls-17" d="M449.91,403c1.66.83,1.66,2.22,0,3L434,413.84a7.76,7.76,0,0,1-6.09,0l-16.46-8.09c-1.66-.83-1.66-2.21,0-3l15.84-7.89a7.76,7.76,0,0,1,6.09,0Z" transform="translate(0 -0.77)"/><path class="cls-17" d="M420.58,417.58c1.59.76,1.59,2.14,0,3l-16.18,8a7.72,7.72,0,0,1-5.95,0l-16.67-8.23c-1.59-.76-1.66-2.15-.07-2.91l16.11-8a7.72,7.72,0,0,1,5.95,0Z" transform="translate(0 -0.77)"/><path class="cls-17" d="M569.36,402.29c1.1.63,1.24,1.52,0,2.08l-61.49,30.36a5.51,5.51,0,0,1-4.22,0l-18.4-9.06c-1.11-.55-1.11-1.52.07-2.07l61.42-30.37a5.6,5.6,0,0,1,4.22,0Z" transform="translate(0 -0.77)"/><path class="cls-17" d="M495.42,438c1.59.76,1.59,2.15,0,2.91l-16.12,8a7.72,7.72,0,0,1-5.95,0l-16.6-8.3a.06.06,0,0,1-.06-.07c-1.6-.76-1.6-2.07,0-2.9l16.11-8a7.72,7.72,0,0,1,5.95,0Z" transform="translate(0 -0.77)"/><path class="cls-17" d="M466,452.58c1.66.83,1.66,2.14,0,2.9l-16.11,8a7.72,7.72,0,0,1-5.95,0l-16.74-8.17s-.07,0-.07-.06c-1.59-.77-1.52-2.08.07-2.91l16.12-8a7.72,7.72,0,0,1,6,0Z" transform="translate(0 -0.77)"/><path class="cls-17" d="M332,461.29c1.59.76,1.59,2.15,0,2.91l-16.12,8a7.42,7.42,0,0,1-5.95,0L293.24,464c-1.59-.76-1.59-2.14,0-2.91l16.19-8a7.42,7.42,0,0,1,5.95,0Z" transform="translate(0 -0.77)"/><path class="cls-17" d="M302.58,476c1.59.77,1.52,2.08-.07,2.91l-16.11,8a7.72,7.72,0,0,1-5.95,0l-16.67-8.23c-1.59-.76-1.66-2.14-.07-2.9l16.12-8a7.69,7.69,0,0,1,5.94,0L302.58,476C302.51,476,302.58,476,302.58,476Z" transform="translate(0 -0.77)"/><path class="cls-17" d="M407,481.77c1.59.76,1.59,2.14,0,3l-16.11,8a7.72,7.72,0,0,1-6,0l-16.67-8.23a.07.07,0,0,1-.07-.07c-1.59-.76-1.45-2.07.07-2.9l16.12-8a7.4,7.4,0,0,1,5.94,0Z" transform="translate(0 -0.77)"/><path class="cls-17" d="M333.78,489c1.59.76,1.66,2.14.07,2.9l-16.19,8a7.72,7.72,0,0,1-6,0L295,491.73c-1.59-.77-1.59-2.15,0-2.91l16.12-8a7.42,7.42,0,0,1,6,0Z" transform="translate(0 -0.77)"/><path class="cls-17" d="M272.84,490.48c1.73.83,1.73,2.21.07,3L257,501.34a7.91,7.91,0,0,1-6.15,0l-16.4-8.09c-1.73-.83-1.73-2.22,0-3.05l15.84-7.88a7.76,7.76,0,0,1,6.09,0Z" transform="translate(0 -0.77)"/><path class="cls-17" d="M304.38,503.62c1.59.76,1.59,2.15,0,3l-16.12,8a7.4,7.4,0,0,1-5.94,0l-16.67-8.23c-1.59-.76-1.59-2.15,0-2.91l16.11-8a7.42,7.42,0,0,1,5.95,0Z" transform="translate(0 -0.77)"/><path class="cls-17" d="M243.44,505.14c1.6.76,1.6,2.15,0,3l-16,7.88a7.76,7.76,0,0,1-6.09,0l-16.46-8.09c-1.66-.83-1.66-2.21,0-3l15.91-7.89a8,8,0,0,1,6.08,0l16.4,8.16C243.38,505.07,243.38,505.14,243.44,505.14Z" transform="translate(0 -0.77)"/><path class="cls-17" d="M184.93,505.21c1.73.83,1.73,2.22.07,3l-15.91,7.88a7.76,7.76,0,0,1-6.09,0L146.54,508c-1.73-.83-1.73-2.21,0-3l15.91-7.89a8.07,8.07,0,0,1,6.09,0Z" transform="translate(0 -0.77)"/><path class="cls-17" d="M528.2,451.68c1.39.69,1.53,1.73.63,2.56L392.15,522a8.23,8.23,0,0,1-6.15,0l-16.46-8c-1.73-.83-1.73-2.22,0-3l6.5-3.18L505.18,444a8.42,8.42,0,0,1,4.53-.92,6.29,6.29,0,0,1,2.1.55Z" transform="translate(0 -0.77)"/><path class="cls-17" d="M274.78,518.15c1.66.83,1.66,2.21,0,3L258.87,529a7.76,7.76,0,0,1-6.09,0l-16.53-8c-1.66-.83-1.73-2.21-.07-3l15.91-7.89a7.93,7.93,0,0,1,6.16,0Z" transform="translate(0 -0.77)"/><path class="cls-17" d="M155.46,519.81c1.66.83,1.73,2.21.07,3l-15.9,7.89a7.93,7.93,0,0,1-6.16,0l-16.53-8.1c-1.66-.83-1.66-2.21,0-3l15.91-7.89a8,8,0,0,1,6.08,0Z" transform="translate(0 -0.77)"/><path class="cls-17" d="M318.49,525.41c1.59.76,1.59,2.14.07,2.9l-16.19,8a7.39,7.39,0,0,1-5.94,0L279.83,528c-1.59-.76-1.66-2.15,0-3l16.11-8a7.72,7.72,0,0,1,5.95,0Z" transform="translate(0 -0.77)"/><path class="cls-17" d="M378.8,526c1.32.62,1.39,1.73,0,2.35l-34.1,16.81a6.35,6.35,0,0,1-4.77,0l-17.77-8.78c-1.32-.63-1.32-1.73.07-2.35l34-16.81a6.17,6.17,0,0,1,4.7,0Z" transform="translate(0 -0.77)"/><path class="cls-17" d="M208,522.57c1.66.83,1.73,2.22,0,3L168.74,545a7.73,7.73,0,0,1-6.08,0l-16.46-8.09c-1.66-.83-1.73-2.21-.07-3l39.28-19.44a7.76,7.76,0,0,1,6.09,0Z" transform="translate(0 -0.77)"/><path class="cls-17" d="M331.91,548.51c1.66.83,1.66,2.21.07,3l-16,7.88a7.76,7.76,0,0,1-6.09,0l-16.46-8.09c-1.66-.83-1.66-2.22,0-3l15.91-7.88a8.07,8.07,0,0,1,6.09,0Z" transform="translate(0 -0.77)"/><path class="cls-17" d="M243,533.78c1.73.83,1.73,2.21,0,3l-45.37,22.41a7.76,7.76,0,0,1-6.09-.07l-16.39-8.09c-1.73-.83-1.73-2.21-.07-3l45.44-22.48a7.93,7.93,0,0,1,6.16,0Z" transform="translate(0 -0.77)"/><path class="cls-17" d="M286.74,541c1.66.83,1.66,2.21,0,3l-59.9,29.6a8,8,0,0,1-6.08,0l-16.46-8.09c-1.8-.83-1.73-2.22-.07-3l60-29.6a8.07,8.07,0,0,1,6.09,0Z" transform="translate(0 -0.77)"/><path class="cls-17" d="M302.37,563.11c1.66.83,1.66,2.21,0,3L286.47,574a7.76,7.76,0,0,1-6.09,0l-16.46-8.09c-1.66-.83-1.66-2.21,0-3L279.83,555a7.45,7.45,0,0,1,6.08,0Z" transform="translate(0 -0.77)"/><path class="cls-17" d="M481.1,358.79c1.66.83,1.66,2.21,0,3l-44.47,22.07a7.76,7.76,0,0,1-6.09,0l-16.39-8.1c-1.66-.83-1.73-2.21,0-3l44.47-22a7.76,7.76,0,0,1,6.09,0Z" transform="translate(0 -0.77)"/><path class="cls-17" d="M509.87,373.38c1.66.83,1.6,2.21,0,3l-16.8,8.3a7.76,7.76,0,0,1-6.09,0l-16.46-8c-1.73-.83-1.73-2.21,0-3l16.81-8.3a7.73,7.73,0,0,1,6.08,0l16.46,8.09Z" transform="translate(0 -0.77)"/><path class="cls-17" d="M479.51,388.39c1.66.83,1.73,2.21,0,3l-15.91,7.89a7.74,7.74,0,0,1-6.08-.07l-16.6-8.09c-1.66-.83-1.66-2.22,0-3l15.9-7.88a7.93,7.93,0,0,1,6.16,0Z" transform="translate(0 -0.77)"/><path class="cls-17" d="M420.79,388.6c1.73.83,1.73,2.21.07,3L405,399.46a7.93,7.93,0,0,1-6.16,0l-16.46-8.1c-1.73-.83-1.66-2.21,0-3l15.91-7.88a7.93,7.93,0,0,1,6.16.07Z" transform="translate(0 -0.77)"/><path class="cls-17" d="M391.32,403.19c1.66.83,1.66,2.22.07,3l-15.91,7.88a7.91,7.91,0,0,1-6.15,0L352.94,406c-1.73-.83-1.66-2.21,0-3L368.77,395a7.76,7.76,0,0,1,6.09,0Z" transform="translate(0 -0.77)"/><path class="cls-17" d="M481.24,416.2c1.59.76,1.59,2.14,0,2.9l-16.19,8a7.69,7.69,0,0,1-5.94,0l-16.67-8.23c-1.66-.83-1.66-2.14-.07-2.9l16.11-8a7.42,7.42,0,0,1,5.95,0Z" transform="translate(0 -0.77)"/><path class="cls-17" d="M361.79,417.79c1.66.83,1.66,2.21,0,3L346,428.65a7.76,7.76,0,0,1-6.09,0l-16.46-8.1c-1.66-.83-1.66-2.21,0-3l15.91-7.89a7.76,7.76,0,0,1,6.09,0Z" transform="translate(0 -0.77)"/><path class="cls-17" d="M451.77,430.72c1.6.76,1.66,2.14.07,2.91l-16.25,8a7.72,7.72,0,0,1-5.95,0l-16.74-8.23c-1.59-.76-1.59-2.15,0-2.91l16.12-8a7.72,7.72,0,0,1,6,0Z" transform="translate(0 -0.77)"/><path class="cls-17" d="M391,432.17c1.66.83,1.66,2.15.07,2.91l-16.12,8a7.42,7.42,0,0,1-5.95,0l-16.74-8.23c-1.59-.76-1.59-2.14,0-2.9l16.19-8a7.72,7.72,0,0,1,5.95,0Z" transform="translate(0 -0.77)"/><path class="cls-17" d="M572.54,430.37c1.24.63,1.31,1.66-.07,2.36l-34.1,16.8a6.08,6.08,0,0,1-4.7,0l-17.85-8.78c-1.24-.62-1.31-1.66.07-2.35l34-16.81a5.89,5.89,0,0,1,4.71,0Z" transform="translate(0 -0.77)"/><path class="cls-17" d="M422.31,445.38c1.59.76,1.59,2.15,0,2.91l-16.19,8a7.4,7.4,0,0,1-5.94,0l-16.67-8.23c-1.59-.76-1.59-2.14,0-2.9l16.11-8a7.42,7.42,0,0,1,5.95,0Z" transform="translate(0 -0.77)"/><path class="cls-17" d="M361.51,446.77c1.59.76,1.66,2.14,0,2.9l-16.11,8a7.42,7.42,0,0,1-5.95-.07l-16.6-8.23c-1.59-.77-1.59-2.15,0-3l16.11-8a7.72,7.72,0,0,1,6,0Z" transform="translate(0 -0.77)"/><path class="cls-17" d="M392.78,459.91c1.59.76,1.59,2.14,0,2.9l-16.19,8a7.72,7.72,0,0,1-5.95,0l-16.6-8.3c-1.59-.76-1.66-2.15-.07-2.91l16.12-8a7.59,7.59,0,0,1,6,0Z" transform="translate(0 -0.77)"/><path class="cls-17" d="M273.39,461.5c1.66.83,1.73,2.21.07,3l-15.91,7.89a7.91,7.91,0,0,1-6.15,0L235,464.27c-1.73-.83-1.73-2.22,0-3l15.9-7.88a8.07,8.07,0,0,1,6.09,0Z" transform="translate(0 -0.77)"/><path class="cls-17" d="M436.42,467.17c1.59.76,1.66,2.15,0,2.91l-16.12,8a7.4,7.4,0,0,1-5.94-.07l-16.67-8.23c-.07,0-.07,0-.07-.07-1.59-.76-1.52-2.07.07-2.9l16.11-8a7.72,7.72,0,0,1,5.95,0Z" transform="translate(0 -0.77)"/><path class="cls-17" d="M363.31,474.43c1.66.83,1.66,2.15,0,2.91l-16.18,8a7.72,7.72,0,0,1-5.95,0l-16.67-8.23c-1.66-.83-1.66-2.14-.07-2.9l16.11-8a7.42,7.42,0,0,1,5.95,0Z" transform="translate(0 -0.77)"/><path class="cls-17" d="M243.93,476.09c1.66.83,1.66,2.22,0,3L228,487a7.76,7.76,0,0,1-6.09,0l-16.46-8.09c-1.66-.83-1.66-2.21,0-3L221.38,468a8.07,8.07,0,0,1,6.09,0Z" transform="translate(0 -0.77)"/><path class="cls-17" d="M214.46,490.62c1.66.83,1.66,2.21,0,3l-15.9,7.89a8.07,8.07,0,0,1-6.09,0L176,493.39c-1.66-.83-1.73-2.22,0-3.05l15.91-7.88a7.74,7.74,0,0,1,6.08.07Z" transform="translate(0 -0.77)"/><path class="cls-17" d="M377.49,496.29c1.59.76,1.59,2.14,0,2.91l-16.05,8a7.72,7.72,0,0,1-5.95,0L338.83,499a.07.07,0,0,1-.07-.07c-1.59-.76-1.59-2.08,0-2.91l16.11-8a7.72,7.72,0,0,1,5.95,0Z" transform="translate(0 -0.77)"/><path class="cls-17" d="M348,510.82c1.66.83,1.66,2.14.07,2.9l-16.11,8a7.72,7.72,0,0,1-6,0l-16.74-8.16a.07.07,0,0,1-.07-.07c-1.59-.76-1.52-2.07.07-2.9l16.12-8a7.72,7.72,0,0,1,5.95,0Z" transform="translate(0 -0.77)"/></g><path class="cls-17" d="M332.39,432.31c1.66.83,1.66,2.21,0,3l-15.91,7.88a7.73,7.73,0,0,1-6.08,0l-16.46-8.09c-1.66-.83-1.66-2.22,0-3.05l15.9-7.88a7.76,7.76,0,0,1,6.09.07Z" transform="translate(0 -0.77)"/><path class="cls-17" d="M272.91,577.7c1.73.83,1.73,2.21.07,3l-15.91,7.89a7.76,7.76,0,0,1-6.09,0l-16.46-8.09c-1.73-.83-1.66-2.22,0-3.05l15.91-7.88a7.76,7.76,0,0,1,6.09.07Z" transform="translate(0 -0.77)"/><path class="cls-17" d="M598.62,416.68c1.72.83,1.72,2.21,0,3l-15.84,7.89a7.93,7.93,0,0,1-6.16,0l-16.46-8.09c-1.73-.83-1.73-2.22-.07-3L576,408.66a7.73,7.73,0,0,1,6.08,0Z" transform="translate(0 -0.77)"/><path d="M302.64,445.38c1.72.83,1.72,2.21.06,3l-15.83,7.89a7.76,7.76,0,0,1-6.09,0l-16.46-8.09c-1.73-.83-1.66-2.22,0-3l15.91-7.88a7.73,7.73,0,0,1,6.08,0Z" transform="translate(0 -0.77)"/><g class="cls-18"><path d="M540,386.38c1.1.55,1.17,1.45,0,2.08l-47.45,23.37a5.51,5.51,0,0,1-4.22,0L470,402.77c-1.18-.55-1.18-1.52,0-2.07l47.38-23.38a5.6,5.6,0,0,1,4.22,0Z" transform="translate(0 -0.77)"/><path d="M449.75,401.46c1.66.83,1.66,2.21,0,3l-15.91,7.89a7.73,7.73,0,0,1-6.08,0l-16.46-8.09c-1.66-.83-1.66-2.22,0-3l15.84-7.88a7.73,7.73,0,0,1,6.08,0Z" transform="translate(0 -0.77)"/><path d="M420.43,416.05c1.59.76,1.59,2.15,0,3l-16.19,8a7.72,7.72,0,0,1-5.95,0l-16.67-8.23c-1.59-.76-1.66-2.14-.07-2.9l16.12-8a7.72,7.72,0,0,1,5.95,0Z" transform="translate(0 -0.77)"/><path d="M569.2,400.77c1.11.62,1.25,1.52,0,2.07l-61.49,30.37a5.58,5.58,0,0,1-4.21,0l-18.4-9.06c-1.11-.56-1.11-1.53.07-2.08l61.42-30.36a5.51,5.51,0,0,1,4.22,0Z" transform="translate(0 -0.77)"/><path d="M495.26,436.46c1.6.76,1.6,2.14,0,2.9l-16.11,8a7.72,7.72,0,0,1-5.95,0l-16.6-8.3a.07.07,0,0,1-.07-.07c-1.59-.76-1.59-2.08,0-2.91l16.12-8a7.72,7.72,0,0,1,6,0Z" transform="translate(0 -0.77)"/><path d="M465.8,451.05c1.66.83,1.66,2.15,0,2.91l-16.12,8a7.69,7.69,0,0,1-5.94,0L427,453.75a.07.07,0,0,1-.07-.07c-1.59-.76-1.52-2.07.07-2.9l16.11-8a7.72,7.72,0,0,1,5.95,0Z" transform="translate(0 -0.77)"/><path d="M331.82,459.77c1.59.76,1.59,2.14,0,2.9l-16.11,8a7.42,7.42,0,0,1-5.95,0l-16.67-8.24c-1.59-.76-1.59-2.14,0-2.9l16.19-8a7.4,7.4,0,0,1,5.94,0Z" transform="translate(0 -0.77)"/><path d="M302.43,474.5c1.59.76,1.52,2.07-.07,2.9l-16.12,8a7.72,7.72,0,0,1-5.95,0l-16.66-8.23c-1.6-.76-1.66-2.15-.07-2.91l16.11-8a7.72,7.72,0,0,1,5.95,0l16.81,8.23C302.36,474.43,302.43,474.43,302.43,474.5Z" transform="translate(0 -0.77)"/><path d="M406.87,480.24c1.59.76,1.59,2.14,0,3l-16.12,8a7.69,7.69,0,0,1-5.94,0L368.14,483a.07.07,0,0,1-.07-.07c-1.59-.76-1.46-2.08.07-2.91l16.11-8a7.42,7.42,0,0,1,5.95,0Z" transform="translate(0 -0.77)"/><path d="M333.62,487.5c1.59.76,1.66,2.15.07,2.91l-16.18,8a7.72,7.72,0,0,1-5.95,0l-16.74-8.23c-1.59-.76-1.59-2.14,0-2.9l16.12-8a7.4,7.4,0,0,1,5.94,0Z" transform="translate(0 -0.77)"/><path d="M272.69,489c1.73.83,1.73,2.21.07,3l-15.91,7.88a7.93,7.93,0,0,1-6.16,0l-16.39-8.09c-1.73-.83-1.73-2.21,0-3l15.84-7.89a7.73,7.73,0,0,1,6.08,0Z" transform="translate(0 -0.77)"/><path d="M304.23,502.1c1.59.76,1.59,2.14,0,3l-16.12,8a7.42,7.42,0,0,1-5.95,0l-16.67-8.23c-1.59-.76-1.59-2.14,0-2.9l16.12-8a7.42,7.42,0,0,1,5.95,0Z" transform="translate(0 -0.77)"/><path d="M243.29,503.62c1.59.76,1.59,2.14,0,3l-16,7.89a7.73,7.73,0,0,1-6.08,0l-16.47-8.09c-1.66-.83-1.66-2.22,0-3l15.91-7.88a8.07,8.07,0,0,1,6.09,0l16.39,8.16C243.22,503.55,243.22,503.62,243.29,503.62Z" transform="translate(0 -0.77)"/><path d="M184.78,503.69c1.72.83,1.72,2.21.06,3l-15.9,7.89a7.76,7.76,0,0,1-6.09,0l-16.46-8.1c-1.73-.83-1.73-2.21,0-3l15.91-7.88a8,8,0,0,1,6.08,0Z" transform="translate(0 -0.77)"/><path d="M528.05,450.15c1.38.69,1.52,1.73.62,2.56L392,520.43a8.25,8.25,0,0,1-6.16,0l-16.46-8c-1.73-.83-1.73-2.21,0-3l6.5-3.18L505,442.49a8.4,8.4,0,0,1,4.53-.92,6.18,6.18,0,0,1,2.1.56Z" transform="translate(0 -0.77)"/><path d="M274.62,516.62c1.66.83,1.66,2.22,0,3l-15.91,7.88a7.73,7.73,0,0,1-6.08,0l-16.53-8c-1.66-.83-1.73-2.22-.07-3l15.91-7.88a7.91,7.91,0,0,1,6.15,0Z" transform="translate(0 -0.77)"/><path d="M155.31,518.28c1.66.83,1.73,2.22.07,3l-15.91,7.88a7.91,7.91,0,0,1-6.15,0l-16.54-8.09c-1.66-.83-1.66-2.21,0-3l15.91-7.88a8.07,8.07,0,0,1,6.09,0Z" transform="translate(0 -0.77)"/><path d="M318.34,523.88c1.59.77,1.59,2.15.07,2.91l-16.19,8a7.42,7.42,0,0,1-6,0l-16.6-8.23c-1.59-.76-1.66-2.14,0-3l16.12-8a7.67,7.67,0,0,1,5.95,0Z" transform="translate(0 -0.77)"/><path d="M378.65,524.51c1.31.62,1.38,1.73,0,2.35l-34.1,16.81a6.35,6.35,0,0,1-4.77,0L322,534.88c-1.31-.62-1.31-1.73.07-2.35l34-16.81a6.17,6.17,0,0,1,4.7,0Z" transform="translate(0 -0.77)"/><path d="M207.81,521.05c1.66.83,1.73,2.21,0,3l-39.22,19.37a7.76,7.76,0,0,1-6.09,0L146,535.37c-1.66-.83-1.73-2.22-.07-3l39.29-19.43a7.76,7.76,0,0,1,6.09,0Z" transform="translate(0 -0.77)"/><path d="M331.75,547c1.66.83,1.66,2.21.07,3l-16,7.89a7.76,7.76,0,0,1-6.09,0l-16.46-8.1c-1.66-.83-1.66-2.21,0-3l15.91-7.89a8,8,0,0,1,6.08,0Z" transform="translate(0 -0.77)"/><path d="M242.81,532.25c1.73.83,1.73,2.22,0,3l-45.38,22.41a7.74,7.74,0,0,1-6.08-.07L175,549.55c-1.73-.83-1.73-2.22-.07-3L220.33,524a7.91,7.91,0,0,1,6.15,0Z" transform="translate(0 -0.77)"/><path d="M286.59,539.52c1.66.83,1.66,2.21,0,3l-59.9,29.6a8.07,8.07,0,0,1-6.09,0L204.14,564c-1.8-.83-1.73-2.21-.07-3l60-29.61a8.07,8.07,0,0,1,6.09,0Z" transform="translate(0 -0.77)"/><path d="M302.22,561.58c1.66.83,1.66,2.21,0,3l-15.91,7.89a7.73,7.73,0,0,1-6.08,0l-16.47-8.09c-1.66-.83-1.66-2.22,0-3.05l15.91-7.81a7.47,7.47,0,0,1,6.09,0Z" transform="translate(0 -0.77)"/><path d="M481,357.26c1.66.83,1.66,2.22,0,3L436.47,382.3a7.73,7.73,0,0,1-6.08,0L414,374.21c-1.66-.83-1.73-2.22,0-3l44.48-22a7.73,7.73,0,0,1,6.08,0Z" transform="translate(0 -0.77)"/><path d="M509.72,371.86c1.66.83,1.59,2.21,0,3l-16.81,8.3a7.73,7.73,0,0,1-6.08,0l-16.47-8c-1.72-.83-1.72-2.22,0-3.05l16.81-8.3a7.76,7.76,0,0,1,6.09,0l16.46,8.1Z" transform="translate(0 -0.77)"/><path d="M479.36,386.87c1.66.83,1.73,2.21,0,3l-15.91,7.88a7.76,7.76,0,0,1-6.09-.07l-16.6-8.09c-1.66-.83-1.66-2.21,0-3l15.91-7.89a7.93,7.93,0,0,1,6.16,0Z" transform="translate(0 -0.77)"/><path d="M420.63,387.07c1.73.83,1.73,2.22.07,3l-15.91,7.88a7.91,7.91,0,0,1-6.15,0l-16.46-8.09c-1.73-.83-1.66-2.21,0-3l15.91-7.89a7.91,7.91,0,0,1,6.15.07Z" transform="translate(0 -0.77)"/><path d="M391.17,401.67c1.66.83,1.66,2.21.07,3l-15.91,7.89a7.93,7.93,0,0,1-6.16,0l-16.39-8.1c-1.73-.83-1.66-2.21,0-3l15.84-7.88a7.76,7.76,0,0,1,6.09,0Z" transform="translate(0 -0.77)"/><path d="M481.09,414.67c1.59.76,1.59,2.14,0,2.91l-16.19,8a7.72,7.72,0,0,1-5.95,0l-16.67-8.23c-1.66-.83-1.66-2.15-.07-2.91l16.12-8a7.42,7.42,0,0,1,5.95,0Z" transform="translate(0 -0.77)"/><path d="M361.63,416.26c1.66.83,1.66,2.21,0,3l-15.83,7.88a7.76,7.76,0,0,1-6.09,0L323.25,419c-1.66-.83-1.66-2.22,0-3l15.91-7.88a7.73,7.73,0,0,1,6.08,0Z" transform="translate(0 -0.77)"/><path d="M451.62,429.2c1.59.76,1.66,2.14.07,2.9l-16.25,8a7.72,7.72,0,0,1-5.95,0l-16.74-8.23c-1.59-.76-1.59-2.14,0-2.9l16.11-8a7.72,7.72,0,0,1,5.95,0Z" transform="translate(0 -0.77)"/><path d="M390.82,430.65c1.66.83,1.66,2.14.07,2.9l-16.11,8a7.42,7.42,0,0,1-5.95,0l-16.74-8.23c-1.59-.77-1.59-2.15,0-2.91l16.18-8a7.72,7.72,0,0,1,6,0Z" transform="translate(0 -0.77)"/><path d="M572.39,428.85c1.24.62,1.31,1.66-.07,2.35L538.22,448a6.2,6.2,0,0,1-4.71,0l-17.84-8.79c-1.25-.62-1.32-1.66.07-2.35l34-16.8a5.79,5.79,0,0,1,4.7,0Z" transform="translate(0 -0.77)"/><path d="M422.16,443.86c1.59.76,1.59,2.14,0,2.9l-16.19,8a7.42,7.42,0,0,1-6,0l-16.67-8.23c-1.59-.76-1.59-2.15,0-2.91l16.12-8a7.42,7.42,0,0,1,5.95,0Z" transform="translate(0 -0.77)"/><path d="M361.36,445.24c1.59.76,1.66,2.15,0,2.91l-16.12,8a7.42,7.42,0,0,1-5.95-.07l-16.6-8.23c-1.59-.76-1.59-2.14,0-3l16.12-8a7.72,7.72,0,0,1,5.95,0Z" transform="translate(0 -0.77)"/><path d="M392.62,458.38c1.59.76,1.59,2.15,0,2.91l-16.18,8a7.72,7.72,0,0,1-5.95,0l-16.6-8.3c-1.59-.76-1.66-2.14-.07-2.9l16.11-8a7.59,7.59,0,0,1,6,0Z" transform="translate(0 -0.77)"/><path d="M273.24,460c1.66.83,1.73,2.22.07,3l-15.91,7.88a7.93,7.93,0,0,1-6.16,0l-16.39-8.09c-1.73-.83-1.73-2.21,0-3l15.91-7.89a8.07,8.07,0,0,1,6.09,0Z" transform="translate(0 -0.77)"/><path d="M436.27,465.65c1.59.76,1.66,2.14,0,2.9l-16.12,8a7.42,7.42,0,0,1-5.95-.06l-16.67-8.24c-.07,0-.07,0-.07-.06-1.59-.77-1.52-2.08.07-2.91l16.12-8a7.72,7.72,0,0,1,6,0Z" transform="translate(0 -0.77)"/><path d="M363.16,472.91c1.66.83,1.66,2.14,0,2.9l-16.19,8a7.72,7.72,0,0,1-6,0l-16.67-8.23c-1.66-.83-1.66-2.15-.07-2.91l16.12-8a7.42,7.42,0,0,1,6,0Z" transform="translate(0 -0.77)"/><path d="M243.77,474.57c1.66.83,1.66,2.21,0,3l-15.9,7.89a7.76,7.76,0,0,1-6.09,0l-16.46-8.09c-1.66-.83-1.66-2.22,0-3l15.91-7.88a8,8,0,0,1,6.08,0Z" transform="translate(0 -0.77)"/><path d="M214.31,489.09c1.66.83,1.66,2.22,0,3L198.4,500a8.07,8.07,0,0,1-6.09,0l-16.46-8.09c-1.66-.83-1.73-2.21,0-3l15.91-7.89a7.76,7.76,0,0,1,6.09.07Z" transform="translate(0 -0.77)"/><path d="M377.34,494.77c1.59.76,1.59,2.14,0,2.9l-16,8a7.72,7.72,0,0,1-6,0l-16.67-8.23a.07.07,0,0,1-.07-.07c-1.59-.76-1.59-2.07,0-2.9l16.12-8a7.67,7.67,0,0,1,5.95,0Z" transform="translate(0 -0.77)"/><path d="M347.87,509.29c1.66.83,1.66,2.14.07,2.91l-16.12,8a7.69,7.69,0,0,1-5.94,0l-16.74-8.16a.07.07,0,0,1-.07-.07c-1.59-.76-1.52-2.08.07-2.91l16.11-8a7.72,7.72,0,0,1,5.95,0Z" transform="translate(0 -0.77)"/></g><path d="M332.24,430.79c1.66.83,1.66,2.21,0,3l-15.91,7.89a7.76,7.76,0,0,1-6.09,0l-16.46-8.1c-1.66-.83-1.66-2.21,0-3l15.91-7.89a7.76,7.76,0,0,1,6.09.07Z" transform="translate(0 -0.77)"/><path d="M272.76,576.17c1.72.83,1.72,2.22.06,3L256.92,587a7.76,7.76,0,0,1-6.09,0l-16.46-8.09c-1.73-.83-1.66-2.21,0-3L250.28,568a7.74,7.74,0,0,1,6.08.07Z" transform="translate(0 -0.77)"/><path d="M598.46,415.15c1.73.83,1.73,2.22,0,3.05l-15.84,7.88a7.91,7.91,0,0,1-6.15,0L560,418c-1.72-.83-1.72-2.21-.06-3l15.9-7.89a7.76,7.76,0,0,1,6.09,0Z" transform="translate(0 -0.77)"/></svg>