<svg xmlns="http://www.w3.org/2000/svg" xmlns:xlink="http://www.w3.org/1999/xlink" viewBox="0 0 184 150"><defs><style>.cls-1{fill:#424242;}.cls-2{fill:#e8edef;}.cls-3{fill:#c8ced6;}.cls-4{fill:#121212;}.cls-5{fill:#000a12;}.cls-6{fill:url(#linear-gradient);}.cls-7{opacity:0.3;}.cls-8{fill:url(#linear-gradient-2);}.cls-9{fill:url(#linear-gradient-3);}.cls-10{fill:url(#linear-gradient-4);}.cls-11{fill:#fafafa;}.cls-12{fill:url(#New_Gradient_Swatch_1);}.cls-13{fill:#efefef;}.cls-14{fill:url(#New_Gradient_Swatch_1-2);}.cls-15{fill:url(#New_Gradient_Swatch_1-3);}.cls-16{fill:url(#New_Gradient_Swatch_1-4);}.cls-17{opacity:0.87;}</style><linearGradient id="linear-gradient" x1="4.56" y1="41.91" x2="68.7" y2="41.91" gradientUnits="userSpaceOnUse"><stop offset="0" stop-color="#5b32bc"/><stop offset="1" stop-color="#44a1cb"/></linearGradient><linearGradient id="linear-gradient-2" x1="32.58" y1="35.23" x2="68.7" y2="35.23" gradientUnits="userSpaceOnUse"><stop offset="0" stop-color="#336fff"/><stop offset="1" stop-color="#44a1cb"/></linearGradient><linearGradient id="linear-gradient-3" x1="4.56" y1="47.71" x2="44.36" y2="47.71" xlink:href="#linear-gradient-2"/><linearGradient id="linear-gradient-4" x1="16.16" y1="58.34" x2="70.1" y2="4.4" gradientUnits="userSpaceOnUse"><stop offset="0" stop-color="#a43493"/><stop offset="1" stop-color="#ec366b"/></linearGradient><linearGradient id="New_Gradient_Swatch_1" x1="16.26" y1="58.45" x2="29.22" y2="45.49" gradientUnits="userSpaceOnUse"><stop offset="0" stop-color="#b40041"/><stop offset="1" stop-color="#720065"/></linearGradient><linearGradient id="New_Gradient_Swatch_1-2" x1="41.2" y1="39.94" x2="54.12" y2="39.94" xlink:href="#New_Gradient_Swatch_1"/><linearGradient id="New_Gradient_Swatch_1-3" x1="67.07" y1="27.56" x2="79.8" y2="27.56" xlink:href="#New_Gradient_Swatch_1"/><linearGradient id="New_Gradient_Swatch_1-4" x1="4.56" y1="42.51" x2="15.35" y2="42.51" xlink:href="#New_Gradient_Swatch_1"/></defs><title>new-ys-logo-black</title><g id="Layer_1" data-name="Layer 1"><polygon class="cls-1" points="70.97 51.77 70 53.95 7.4 84.23 2.29 84.53 4.56 82.15 68.7 51.77 70.97 51.77"/><path class="cls-2" d="M62,108.47l60.15-28.71a2,2,0,0,0,1.24-1.71v-.11a2,2,0,0,0-1.24-1.74L70.93,51.77,2.29,84.53l50.14,23.94A11.29,11.29,0,0,0,62,108.47Z" transform="translate(0 0)"/><path class="cls-3" d="M123.36,78.05a2,2,0,0,1-1.24,1.71L62,108.47a11.29,11.29,0,0,1-9.54,0L2.29,84.53A7.13,7.13,0,0,0,6.66,90.8l45.78,21.85a11.29,11.29,0,0,0,9.54,0l56.35-26.9c3.12-1.5,5-4.24,5-7.22V78S123.36,78,123.36,78.05Z" transform="translate(0 0)"/><polygon class="cls-4" points="15.88 77.92 22.09 80.92 63.33 61.21 57.18 58.31 15.88 77.92"/><path class="cls-5" d="M69.65,1.08,68.46.51A5.32,5.32,0,0,0,66.17,0a5.23,5.23,0,0,1,2.27.51Z" transform="translate(0 0)"/><path class="cls-3" d="M0,81.28V35.61a7.82,7.82,0,0,1,4.82-6.9L63.89.51A5.28,5.28,0,0,1,66.17,0a5.32,5.32,0,0,0-2.29.51L4.82,28.71A7.82,7.82,0,0,0,0,35.61V81.28a3.74,3.74,0,0,0,2.29,3.27h0A3.72,3.72,0,0,1,0,81.28Z" transform="translate(0 0)"/><path class="cls-5" d="M69.65,1.08,68.44.51a5.33,5.33,0,0,0-4.55,0L4.83,28.71A7.82,7.82,0,0,0,0,35.61V81.28a3.72,3.72,0,0,0,2.28,3.26h0L71,51.78V2.89A2.09,2.09,0,0,0,69.65,1.08Z" transform="translate(0 0)"/><polygon class="cls-6" points="4.56 34.27 4.56 80.16 68.7 49.56 68.7 3.66 4.56 34.27"/><g class="cls-7"><polygon class="cls-8" points="32.58 66.8 64.19 51.71 68.7 41.36 68.7 3.66 57.73 8.9 32.58 66.8"/></g><g class="cls-7"><polygon class="cls-9" points="44.37 15.27 16.69 28.48 4.56 56.4 4.56 80.16 19.22 73.17 44.37 15.27"/></g><path class="cls-10" d="M79.79,19.79,69,3.3l-64.44,31V45.55l10.8,5.19v5.31c0,3.18,4.16,5.15,7.47,3.56h0C26.2,58,28.28,55,28.28,51.81V44.55l12.93-6.21v5.3c0,3.17,4.16,5.14,7.47,3.56s5.45-4.59,5.45-7.81V32.13l12.94-6.21V31.2c0,3.18,4.15,5.15,7.47,3.56a8.54,8.54,0,0,0,5.26-7.71V19.79Z" transform="translate(0 0)"/><path class="cls-11" d="M41.2,38.32l-11-16.39L17.29,28.14l11,16.38v5.31c0,3.18,4.16,5.15,7.47,3.56s5.45-4.58,5.45-7.81V38.32Z" transform="translate(0 0)"/><path class="cls-11" d="M56.06,9.51,43.15,15.7l11,16.42v5.31c0,3.17,4.15,5.14,7.47,3.56s5.45-4.59,5.45-7.81V25.91Z" transform="translate(0 0)"/><path class="cls-12" d="M15.35,50.74v5.31c0,3.18,4.15,5.15,7.47,3.56h0c3.37-1.61,5.45-4.58,5.45-7.8V44.53Z" transform="translate(0 0)"/><path class="cls-13" d="M28.29,44.53v5.31c0,3.18,4.16,5.15,7.47,3.56h0c3.38-1.61,5.45-4.58,5.45-7.8V38.32Z" transform="translate(0 0)"/><path class="cls-14" d="M41.2,38.32v5.32c0,3.17,4.16,5.14,7.47,3.56h0c3.37-1.62,5.45-4.59,5.45-7.81V32.12Z" transform="translate(0 0)"/><path class="cls-15" d="M67.07,25.91v5.31c0,3.17,4.15,5.14,7.47,3.56h0a8.56,8.56,0,0,0,5.26-7.72V19.79Z" transform="translate(0 0)"/><path class="cls-13" d="M54.15,32.12v5.31c0,3.17,4.15,5.14,7.47,3.56h0c3.37-1.61,5.45-4.59,5.45-7.81V25.91Z" transform="translate(0 0)"/><polygon class="cls-16" points="15.35 50.74 4.56 45.55 4.56 34.27 15.35 50.74"/><path class="cls-5" d="M44.6,75.49l2.78,1.37a1.32,1.32,0,0,0,1,0l2.67-1.33c.28-.13.28-.36,0-.5l-2.75-1.38a1.32,1.32,0,0,0-1,0L44.6,75C44.32,75.12,44.31,75.35,44.6,75.49Z" transform="translate(0 0)"/><path class="cls-5" d="M79.32,67.84l3.09,1.53a1,1,0,0,0,.71,0l8-4c.2-.1.18-.26,0-.35L88,63.54a1,1,0,0,0-.71,0l-8,3.95C79.12,67.58,79.12,67.74,79.32,67.84Z" transform="translate(0 0)"/><path class="cls-5" d="M72.08,66.25l-2.67,1.33c-.28.13-.28.36,0,.5l2.77,1.37a1.32,1.32,0,0,0,1,0l2.69-1.33c.28-.13.28-.36,0-.5l-2.79-1.37A1.32,1.32,0,0,0,72.08,66.25Z" transform="translate(0 0)"/><path class="cls-5" d="M67.11,68.69,64.39,70c-.27.13-.26.37,0,.49l2.81,1.39a1.31,1.31,0,0,0,1,0L71,70.58c.27-.14.27-.37,0-.5l-2.84-1.39A1.29,1.29,0,0,0,67.11,68.69Z" transform="translate(0 0)"/><path class="cls-5" d="M81.86,71.44,85,73a.9.9,0,0,0,.72,0l10.37-5.12c.21-.09.19-.25,0-.35L93,66a1,1,0,0,0-.71,0L81.87,71.09C81.67,71.19,81.67,71.35,81.86,71.44Z" transform="translate(0 0)"/><path class="cls-5" d="M80.86,75.37,83.58,74c.26-.13.26-.36,0-.49l-2.82-1.41a1.29,1.29,0,0,0-1,0L77,73.46c-.27.14-.27.37,0,.49,0,0,0,0,0,0l2.8,1.4A1.36,1.36,0,0,0,80.86,75.37Z" transform="translate(0 0)"/><path class="cls-5" d="M75.88,77.82l2.72-1.35c.28-.12.28-.35,0-.49l-2.82-1.4a1.33,1.33,0,0,0-1,0l-2.72,1.36c-.27.14-.28.36,0,.49h0l2.82,1.38A1.29,1.29,0,0,0,75.88,77.82Z" transform="translate(0 0)"/><path class="cls-5" d="M52.19,76.07l-2.73,1.35c-.27.13-.27.36,0,.49l2.81,1.39a1.27,1.27,0,0,0,1,0L56,78c.26-.13.26-.37,0-.49l-2.81-1.39A1.24,1.24,0,0,0,52.19,76.07Z" transform="translate(0 0)"/><path class="cls-5" d="M47.19,78.55l-2.71,1.36c-.27.12-.26.36,0,.49l2.81,1.39a1.33,1.33,0,0,0,1,0L51,80.43c.27-.14.28-.36,0-.49L48.2,78.55A1.31,1.31,0,0,0,47.19,78.55Z" transform="translate(0 0)"/><path class="cls-5" d="M65.94,82.77l2.72-1.36c.27-.14.27-.37,0-.5l-2.81-1.39a1.27,1.27,0,0,0-1,0l-2.72,1.35c-.25.14-.28.37,0,.5h0l2.82,1.39A1.33,1.33,0,0,0,65.94,82.77Z" transform="translate(0 0)"/><path class="cls-5" d="M53.47,80.75a1.24,1.24,0,0,0-1,0L49.75,82.1c-.27.13-.27.36,0,.49L52.58,84a1.29,1.29,0,0,0,1,0l2.73-1.35c.27-.13.26-.37,0-.49Z" transform="translate(0 0)"/><path class="cls-5" d="M42.21,81l-2.67,1.33c-.29.14-.29.38,0,.52l2.76,1.36a1.34,1.34,0,0,0,1,0L46,82.88c.28-.13.28-.36,0-.5L43.24,81A1.32,1.32,0,0,0,42.21,81Z" transform="translate(0 0)"/><path class="cls-5" d="M48.62,86.45l2.72-1.35c.27-.14.27-.37,0-.5l-2.81-1.38a1.27,1.27,0,0,0-1,0L44.8,84.57c-.27.13-.27.37,0,.5l2.81,1.38A1.27,1.27,0,0,0,48.62,86.45Z" transform="translate(0 0)"/><path class="cls-5" d="M24.7,85.33l2.78,1.37a1.32,1.32,0,0,0,1,0l2.68-1.33c.28-.13.28-.36,0-.5l-2.77-1.38a1.34,1.34,0,0,0-1,0L24.7,84.82C24.41,85,24.41,85.19,24.7,85.33Z" transform="translate(0 0)"/><path class="cls-5" d="M89.11,75.83l-2.77-1.35a1.2,1.2,0,0,0-.35-.1,1.47,1.47,0,0,0-.77.16L63.43,85.29l-1.1.53c-.29.14-.29.38,0,.52l2.78,1.35a1.39,1.39,0,0,0,1,0L89.21,76.26C89.37,76.12,89.34,76,89.11,75.83Z" transform="translate(0 0)"/><path class="cls-5" d="M39.84,87.53l2.79,1.35a1.32,1.32,0,0,0,1,0l2.68-1.33c.28-.13.28-.36,0-.5L43.55,85.7a1.34,1.34,0,0,0-1,0L39.83,87C39.55,87.15,39.56,87.39,39.84,87.53Z" transform="translate(0 0)"/><path class="cls-5" d="M26.21,87.33,23.42,86a1.41,1.41,0,0,0-1,0l-2.68,1.33c-.28.13-.28.37,0,.51l2.79,1.36a1.34,1.34,0,0,0,1,0l2.68-1.33C26.5,87.7,26.49,87.47,26.21,87.33Z" transform="translate(0 0)"/><path class="cls-5" d="M47.19,88.72,50,90.11a1.24,1.24,0,0,0,1,0l2.73-1.34c.26-.13.26-.37,0-.5l-2.8-1.41a1.31,1.31,0,0,0-1,0l-2.72,1.36C46.91,88.36,46.93,88.59,47.19,88.72Z" transform="translate(0 0)"/><path class="cls-5" d="M63.9,88.38l-3-1.48a1,1,0,0,0-.8,0l-5.74,2.83c-.23.11-.23.3,0,.4l3,1.48a1,1,0,0,0,.8,0l5.76-2.83C64.13,88.67,64.12,88.48,63.9,88.38Z" transform="translate(0 0)"/><path class="cls-5" d="M41.06,84.86s0,0,0,0l-2.76-1.38a1.36,1.36,0,0,0-1,0l-2.69,1.33c-.28.13-.28.36,0,.5l2.78,1.37a1.32,1.32,0,0,0,1,0l2.7-1.33C41.32,85.22,41.32,85,41.06,84.86Z" transform="translate(0 0)"/><path class="cls-5" d="M35.07,87.8l-2.78-1.38a1.32,1.32,0,0,0-1,0L24.63,89.7c-.28.14-.27.37,0,.51l2.78,1.37a1.32,1.32,0,0,0,1,0l6.62-3.27C35.36,88.17,35.35,87.94,35.07,87.8Z" transform="translate(0 0)"/><path class="cls-5" d="M56,92.17l-2.77-1.36a1.36,1.36,0,0,0-1,0l-2.69,1.33c-.28.13-.28.36,0,.5L52.27,94a1.32,1.32,0,0,0,1,0L56,92.68C56.26,92.55,56.26,92.31,56,92.17Z" transform="translate(0 0)"/><path class="cls-5" d="M41,89.69,38.22,88.3a1.34,1.34,0,0,0-1,0l-7.67,3.79c-.28.14-.28.38,0,.52L32.29,94a1.32,1.32,0,0,0,1,0L41,90.2C41.27,90.06,41.27,89.83,41,89.69Z" transform="translate(0 0)"/><path class="cls-5" d="M48.36,90.91l-2.78-1.36a1.34,1.34,0,0,0-1,0l-10.12,5c-.28.13-.29.36,0,.5l2.78,1.37a1.34,1.34,0,0,0,1,0l10.11-5C48.64,91.29,48.64,91.05,48.36,90.91Z" transform="translate(0 0)"/><path class="cls-5" d="M51,94.64l-2.78-1.37a1.27,1.27,0,0,0-1,0l-2.68,1.32c-.28.14-.28.37,0,.51l2.78,1.37a1.32,1.32,0,0,0,1,0L51,95.14C51.28,95,51.28,94.78,51,94.64Z" transform="translate(0 0)"/><path class="cls-5" d="M69.86,63l2.77,1.36a1.29,1.29,0,0,0,1,0l7.51-3.72c.28-.13.28-.36,0-.5l-2.77-1.37a1.29,1.29,0,0,0-1,0L69.86,62.5C69.57,62.64,69.58,62.88,69.86,63Z" transform="translate(0 0)"/><path class="cls-5" d="M79.37,63.17l2.78,1.35a1.32,1.32,0,0,0,1,0L86,63.12c.26-.13.28-.36,0-.5l-2.78-1.37a1.32,1.32,0,0,0-1,0l-2.84,1.41C79.08,62.8,79.08,63,79.37,63.17Z" transform="translate(0 0)"/><path class="cls-5" d="M80.89,65.15,78.1,63.79a1.34,1.34,0,0,0-1,0l-2.68,1.33c-.28.13-.28.36,0,.5L77.18,67a1.32,1.32,0,0,0,1,0l2.68-1.33C81.18,65.53,81.17,65.29,80.89,65.15Z" transform="translate(0 0)"/><path class="cls-5" d="M64.49,65.65,67.27,67a1.34,1.34,0,0,0,1,0L71,65.69c.28-.13.28-.36,0-.5l-2.76-1.37a1.34,1.34,0,0,0-1,0l-2.69,1.33C64.21,65.28,64.2,65.51,64.49,65.65Z" transform="translate(0 0)"/><path class="cls-5" d="M59.53,68.12l2.77,1.36a1.34,1.34,0,0,0,1,0L66,68.15c.27-.13.27-.36,0-.5l-2.78-1.38a1.32,1.32,0,0,0-1,0L59.53,67.6C59.25,67.74,59.24,68,59.53,68.12Z" transform="translate(0 0)"/><path class="cls-5" d="M78.45,71.69l2.73-1.35c.27-.13.27-.37,0-.5l-2.83-1.38a1.27,1.27,0,0,0-1,0l-2.72,1.35c-.26.13-.26.35,0,.49l2.81,1.39A1.29,1.29,0,0,0,78.45,71.69Z" transform="translate(0 0)"/><path class="cls-5" d="M54.55,70.58,57.33,72a1.29,1.29,0,0,0,1,0L61,70.62c.28-.13.28-.37,0-.51l-2.77-1.36a1.32,1.32,0,0,0-1,0l-2.68,1.33C54.27,70.21,54.27,70.44,54.55,70.58Z" transform="translate(0 0)"/><path class="cls-5" d="M73.48,74.14l2.74-1.35c.27-.13.26-.37,0-.49l-2.84-1.39a1.29,1.29,0,0,0-1,0l-2.72,1.35c-.27.13-.27.36,0,.49l2.83,1.39A1.29,1.29,0,0,0,73.48,74.14Z" transform="translate(0 0)"/><path class="cls-5" d="M62.15,71.15l-2.73,1.36c-.27.12-.27.36,0,.49l2.82,1.39a1.24,1.24,0,0,0,1,0L66,73c.27-.13.27-.35,0-.49l-2.8-1.39A1.29,1.29,0,0,0,62.15,71.15Z" transform="translate(0 0)"/><path class="cls-5" d="M96.59,72.24l-3-1.48a1,1,0,0,0-.8,0L87,73.59c-.23.12-.22.29,0,.4l3,1.48a1,1,0,0,0,.79,0l5.76-2.84C96.81,72.52,96.8,72.34,96.59,72.24Z" transform="translate(0 0)"/><path class="cls-5" d="M68.51,76.61l2.73-1.35c.27-.13.27-.36,0-.49l-2.83-1.39a1.24,1.24,0,0,0-1,0l-2.72,1.36c-.27.12-.27.36,0,.49l2.81,1.38A1.27,1.27,0,0,0,68.51,76.61Z" transform="translate(0 0)"/><path class="cls-5" d="M57.17,73.59,54.45,75c-.26.14-.26.37,0,.5l2.81,1.39a1.24,1.24,0,0,0,1,0L61,75.49c.28-.12.27-.36,0-.49l-2.8-1.41A1.31,1.31,0,0,0,57.17,73.59Z" transform="translate(0 0)"/><path class="cls-5" d="M63.52,79.07l2.73-1.36c.27-.13.27-.36,0-.49l-2.81-1.4a1.27,1.27,0,0,0-1,0l-2.72,1.35c-.27.13-.26.37,0,.5l2.8,1.4A1.33,1.33,0,0,0,63.52,79.07Z" transform="translate(0 0)"/><path class="cls-5" d="M39.63,78l2.77,1.36a1.34,1.34,0,0,0,1,0L46.12,78c.28-.13.27-.36,0-.5l-2.77-1.38a1.34,1.34,0,0,0-1,0l-2.69,1.33C39.34,77.58,39.34,77.82,39.63,78Z" transform="translate(0 0)"/><path class="cls-5" d="M70.9,80.29l2.72-1.35c.28-.13.27-.36,0-.49L70.81,77a1.36,1.36,0,0,0-1,0l-2.72,1.36c-.26.14-.28.36,0,.49,0,0,0,0,0,0l2.82,1.39A1.24,1.24,0,0,0,70.9,80.29Z" transform="translate(0 0)"/><path class="cls-5" d="M58.55,81.52l2.73-1.36c.28-.13.28-.35,0-.49l-2.83-1.39a1.27,1.27,0,0,0-1,0l-2.72,1.36c-.27.13-.27.35,0,.49l2.82,1.39A1.29,1.29,0,0,0,58.55,81.52Z" transform="translate(0 0)"/><path class="cls-5" d="M34.65,80.42l2.78,1.37a1.29,1.29,0,0,0,1,0l2.69-1.34c.28-.12.28-.36,0-.5l-2.78-1.36a1.36,1.36,0,0,0-1,0l-2.68,1.33C34.37,80.05,34.37,80.28,34.65,80.42Z" transform="translate(0 0)"/><path class="cls-5" d="M29.68,82.87l2.77,1.37a1.41,1.41,0,0,0,1,0l2.68-1.33c.28-.13.28-.37,0-.51L33.39,81a1.32,1.32,0,0,0-1,0l-2.68,1.33C29.38,82.5,29.4,82.73,29.68,82.87Z" transform="translate(0 0)"/><path class="cls-5" d="M61,85.21l2.71-1.36c.26-.13.26-.36,0-.49L60.86,82a1.29,1.29,0,0,0-1,0l-2.72,1.35c-.27.14-.27.37,0,.49,0,0,0,0,0,0L60,85.21A1.36,1.36,0,0,0,61,85.21Z" transform="translate(0 0)"/><path class="cls-5" d="M56,87.66l2.71-1.36c.27-.13.27-.35,0-.49l-2.81-1.39a1.29,1.29,0,0,0-1,0l-2.72,1.36c-.27.14-.28.36,0,.49a0,0,0,0,0,0,0L55,87.66A1.36,1.36,0,0,0,56,87.66Z" transform="translate(0 0)"/><path class="cls-5" d="M49.58,73l2.77,1.37a1.32,1.32,0,0,0,1,0l2.69-1.33c.28-.13.28-.37,0-.51L53.29,71.2a1.32,1.32,0,0,0-1,0l-2.68,1.33C49.3,72.66,49.3,72.89,49.58,73Z" transform="translate(0 0)"/><path class="cls-5" d="M46,97.1l-2.77-1.37a1.32,1.32,0,0,0-1,0l-2.68,1.33c-.28.14-.29.38,0,.52l2.78,1.36a1.29,1.29,0,0,0,1,0L46,97.6C46.32,97.47,46.32,97.24,46,97.1Z" transform="translate(0 0)"/><path class="cls-5" d="M101,69.93,98.2,68.57a1.32,1.32,0,0,0-1,0L94.49,69.9c-.28.13-.28.37,0,.51l2.78,1.36a1.34,1.34,0,0,0,1,0L101,70.44C101.28,70.3,101.28,70.07,101,69.93Z" transform="translate(0 0)"/></g><g id="Layer_3" data-name="Layer 3"><g class="cls-17"><path d="M17.06,122a2.86,2.86,0,0,1,1.47-.41,3.22,3.22,0,0,1,2.12.77,2.34,2.34,0,0,1,.91,1.84,2.59,2.59,0,0,1-.29,1.16L10.12,148.26A3,3,0,0,1,9,149.56a2.81,2.81,0,0,1-1.5.44,3,3,0,0,1-2-.75,2.3,2.3,0,0,1-.87-1.82,2.76,2.76,0,0,1,.29-1.24l2.74-5.68L.25,125.37A2.74,2.74,0,0,1,0,124.25a2.36,2.36,0,0,1,1-1.9,3.41,3.41,0,0,1,2.22-.79,2.86,2.86,0,0,1,1.54.43,3,3,0,0,1,1.12,1.31L11,134.49l5-11.19A2.7,2.7,0,0,1,17.06,122Z" transform="translate(0 0)"/><path d="M27.94,141.31a9.18,9.18,0,0,1-3.77-3.69,12.52,12.52,0,0,1,0-11.23,9.07,9.07,0,0,1,3.77-3.67,12,12,0,0,1,5.68-1.29,12,12,0,0,1,5.68,1.29,9,9,0,0,1,3.78,3.67,12.6,12.6,0,0,1,0,11.23,9.15,9.15,0,0,1-3.78,3.69,11.88,11.88,0,0,1-5.68,1.31A11.9,11.9,0,0,1,27.94,141.31ZM38.19,132a6.86,6.86,0,0,0-1.19-4.4,4.08,4.08,0,0,0-3.38-1.45q-4.56,0-4.56,5.85t4.56,5.84C36.66,137.85,38.19,135.9,38.19,132Z" transform="translate(0 0)"/><path d="M67,122.3a2.8,2.8,0,0,1,.85,2.16v15.22a2.66,2.66,0,0,1-.89,2.07,3.38,3.38,0,0,1-2.3.79,3,3,0,0,1-2.12-.75,2.64,2.64,0,0,1-.79-2v-.41a6.4,6.4,0,0,1-2.5,2.4,7.39,7.39,0,0,1-3.51.83q-3.86,0-5.74-2.14T48.09,134v-9.58a2.84,2.84,0,0,1,.85-2.16,3.29,3.29,0,0,1,2.3-.78,3.23,3.23,0,0,1,2.29.78,2.86,2.86,0,0,1,.82,2.16v9.7a4,4,0,0,0,.77,2.7,3,3,0,0,0,2.34.87,3.84,3.84,0,0,0,3-1.25,4.65,4.65,0,0,0,1.14-3.27v-8.75a2.83,2.83,0,0,1,.83-2.16,3.19,3.19,0,0,1,2.28-.78A3.27,3.27,0,0,1,67,122.3Z" transform="translate(0 0)"/><path d="M86.76,122.08a2.45,2.45,0,0,1,.72,1.92,2.8,2.8,0,0,1-.66,2,3.9,3.9,0,0,1-2.37.83l-1.24.12a4.75,4.75,0,0,0-3.3,1.49,4.93,4.93,0,0,0-1,3.19v7.92a2.72,2.72,0,0,1-.89,2.2,3.35,3.35,0,0,1-2.22.75,3.39,3.39,0,0,1-2.26-.75,2.69,2.69,0,0,1-.89-2.2V124.38a2.59,2.59,0,0,1,.91-2.12,3.4,3.4,0,0,1,2.2-.74,3,3,0,0,1,2.07.72,2.56,2.56,0,0,1,.83,2v1.12a5.72,5.72,0,0,1,2.26-2.73,6.94,6.94,0,0,1,3.3-1.08l.58,0A2.57,2.57,0,0,1,86.76,122.08Z" transform="translate(0 0)"/><path d="M92.37,142.21a10,10,0,0,1-3.27-1.33,2.49,2.49,0,0,1-1-1,2.94,2.94,0,0,1-.33-1.41,2.39,2.39,0,0,1,.54-1.59,1.66,1.66,0,0,1,1.33-.64,3.4,3.4,0,0,1,1.08.18c.35.13.73.27,1.12.44a14.79,14.79,0,0,0,2.28.85,10.8,10.8,0,0,0,2.77.31,4.56,4.56,0,0,0,2.26-.46,1.38,1.38,0,0,0,.81-1.24,1.26,1.26,0,0,0-.35-.93,3.28,3.28,0,0,0-1.31-.65c-.63-.19-1.64-.43-3-.7A11.44,11.44,0,0,1,90,131.92,4.94,4.94,0,0,1,88.39,128a5.37,5.37,0,0,1,1.14-3.35,7.63,7.63,0,0,1,3.13-2.35,11.43,11.43,0,0,1,4.48-.85,13.51,13.51,0,0,1,3.48.46,10.65,10.65,0,0,1,3,1.29,2.54,2.54,0,0,1,1.29,2.32,2.57,2.57,0,0,1-.54,1.66,1.67,1.67,0,0,1-1.33.66,4.81,4.81,0,0,1-2.28-.75,11.9,11.9,0,0,0-1.89-.81,6.61,6.61,0,0,0-2-.27,3.74,3.74,0,0,0-2,.48,1.48,1.48,0,0,0-.75,1.31A1.42,1.42,0,0,0,95,129.1a13.67,13.67,0,0,0,3.36.92,18.34,18.34,0,0,1,4.36,1.3,5.27,5.27,0,0,1,2.28,1.93,5.59,5.59,0,0,1,.7,2.94,5.49,5.49,0,0,1-2.42,4.69,10.92,10.92,0,0,1-6.49,1.74A21,21,0,0,1,92.37,142.21Z" transform="translate(0 0)"/><path d="M122.18,138.6a2.31,2.31,0,0,1-.37,3.4,4.5,4.5,0,0,1-2.74.5l-1.16-.09q-7.25-.57-7.25-7.58v-8.21H109a3.12,3.12,0,0,1-2.07-.6,2.17,2.17,0,0,1-.71-1.73,2.19,2.19,0,0,1,.71-1.76,3.12,3.12,0,0,1,2.07-.6h1.66V118.7a2.8,2.8,0,0,1,.85-2.16,3.26,3.26,0,0,1,2.3-.79,3.19,3.19,0,0,1,2.28.79,2.86,2.86,0,0,1,.83,2.16v3.23h2.9c1.88,0,2.82.79,2.82,2.36a2.17,2.17,0,0,1-.71,1.73,3.18,3.18,0,0,1-2.11.6h-2.9v8.66a2.72,2.72,0,0,0,.58,1.89,2.4,2.4,0,0,0,1.7.72l1.16.09A2.85,2.85,0,0,1,122.18,138.6Z" transform="translate(0 0)"/><path d="M129.19,141.31a9.12,9.12,0,0,1-3.77-3.69,12.52,12.52,0,0,1,0-11.23,9,9,0,0,1,3.77-3.67,13.15,13.15,0,0,1,11.36,0,9,9,0,0,1,3.77,3.67,12.52,12.52,0,0,1,0,11.23,9.12,9.12,0,0,1-3.77,3.69,13,13,0,0,1-11.36,0Zm10.24-9.3a6.86,6.86,0,0,0-1.18-4.4,4.11,4.11,0,0,0-3.38-1.45q-4.56,0-4.56,5.85t4.56,5.84Q139.43,137.85,139.43,132Z" transform="translate(0 0)"/><path d="M163.58,122.08a2.45,2.45,0,0,1,.73,1.92,2.76,2.76,0,0,1-.67,2,3.87,3.87,0,0,1-2.36.83L160,127a4.75,4.75,0,0,0-3.3,1.49,4.88,4.88,0,0,0-1,3.19v7.92a2.69,2.69,0,0,1-.89,2.2,3.31,3.31,0,0,1-2.22.75,3.36,3.36,0,0,1-2.25-.75,2.7,2.7,0,0,1-.9-2.2V124.38a2.59,2.59,0,0,1,.92-2.12,3.37,3.37,0,0,1,2.19-.74,3.08,3.08,0,0,1,2.08.72,2.56,2.56,0,0,1,.83,2v1.12a5.67,5.67,0,0,1,2.26-2.73,6.87,6.87,0,0,1,3.29-1.08l.58,0A2.56,2.56,0,0,1,163.58,122.08Z" transform="translate(0 0)"/><path d="M183.36,136.9a2.71,2.71,0,0,1,.52,1.7,2.21,2.21,0,0,1-.42,1.3,3.32,3.32,0,0,1-1.16,1,14.29,14.29,0,0,1-3.28,1.22,13.85,13.85,0,0,1-3.44.48,12.29,12.29,0,0,1-5.78-1.29,8.93,8.93,0,0,1-3.79-3.66,11.34,11.34,0,0,1-1.33-5.62,11.62,11.62,0,0,1,1.28-5.52,9.48,9.48,0,0,1,3.57-3.75,10,10,0,0,1,5.18-1.35,9.42,9.42,0,0,1,4.87,1.23,8.31,8.31,0,0,1,3.26,3.48,11.49,11.49,0,0,1,1.16,5.29,2,2,0,0,1-.44,1.38,1.55,1.55,0,0,1-1.22.48H170.73a5.56,5.56,0,0,0,1.5,3.55,4.92,4.92,0,0,0,3.44,1.1,7.11,7.11,0,0,0,2.15-.3,20.42,20.42,0,0,0,2.12-.78c.38-.17.76-.31,1.12-.44a3,3,0,0,1,.95-.18A1.65,1.65,0,0,1,183.36,136.9Zm-11.34-10a5.41,5.41,0,0,0-1.29,3.29h8a5.43,5.43,0,0,0-1.09-3.31,3.45,3.45,0,0,0-2.76-1.12A3.75,3.75,0,0,0,172,126.89Z" transform="translate(0 0)"/></g></g></svg>